<mxfile host="app.diagrams.net" modified="2023-10-10T04:34:15.929Z" agent="Mozilla/5.0 (Windows NT 10.0; Win64; x64) AppleWebKit/537.36 (KHTML, like Gecko) Chrome/117.0.0.0 Safari/537.36" etag="lhApYYtCvJ80VPndY3QS" version="22.0.4" type="device">
  <diagram name="Page-1" id="sKsNlvgk31i-ojrEtxhI">
    <mxGraphModel dx="1050" dy="566" grid="1" gridSize="10" guides="1" tooltips="1" connect="1" arrows="1" fold="1" page="1" pageScale="1" pageWidth="850" pageHeight="1100" math="0" shadow="0">
      <root>
        <mxCell id="0" />
        <mxCell id="1" parent="0" />
        <mxCell id="kNFhqGO5XKdmtGAHznVc-3" value="" style="edgeStyle=orthogonalEdgeStyle;rounded=0;orthogonalLoop=1;jettySize=auto;html=1;labelBackgroundColor=none;strokeColor=#E07A5F;fontColor=default;" parent="1" source="kNFhqGO5XKdmtGAHznVc-1" target="kNFhqGO5XKdmtGAHznVc-2" edge="1">
          <mxGeometry relative="1" as="geometry">
            <Array as="points">
              <mxPoint x="300" y="170" />
              <mxPoint x="300" y="170" />
            </Array>
          </mxGeometry>
        </mxCell>
        <mxCell id="kNFhqGO5XKdmtGAHznVc-1" value="&lt;font style=&quot;font-size: 14px;&quot;&gt;Student&lt;/font&gt;" style="rounded=0;whiteSpace=wrap;html=1;labelBackgroundColor=none;fillColor=#F2CC8F;strokeColor=#E07A5F;fontColor=#393C56;" parent="1" vertex="1">
          <mxGeometry x="140" y="160" width="120" height="40" as="geometry" />
        </mxCell>
        <mxCell id="kNFhqGO5XKdmtGAHznVc-2" value="Get&lt;br&gt;Book" style="ellipse;whiteSpace=wrap;html=1;rounded=0;labelBackgroundColor=none;fillColor=#F2CC8F;strokeColor=#E07A5F;fontColor=#393C56;" parent="1" vertex="1">
          <mxGeometry x="360" y="140" width="80" height="80" as="geometry" />
        </mxCell>
        <mxCell id="kNFhqGO5XKdmtGAHznVc-8" value="" style="edgeStyle=orthogonalEdgeStyle;rounded=0;orthogonalLoop=1;jettySize=auto;html=1;labelBackgroundColor=none;strokeColor=#E07A5F;fontColor=default;" parent="1" source="kNFhqGO5XKdmtGAHznVc-4" target="kNFhqGO5XKdmtGAHznVc-2" edge="1">
          <mxGeometry relative="1" as="geometry" />
        </mxCell>
        <mxCell id="kNFhqGO5XKdmtGAHznVc-10" value="" style="edgeStyle=orthogonalEdgeStyle;rounded=0;orthogonalLoop=1;jettySize=auto;html=1;labelBackgroundColor=none;strokeColor=#E07A5F;fontColor=default;" parent="1" source="kNFhqGO5XKdmtGAHznVc-4" edge="1">
          <mxGeometry relative="1" as="geometry">
            <mxPoint x="400" y="460" as="targetPoint" />
            <Array as="points">
              <mxPoint x="400" y="450" />
              <mxPoint x="400" y="450" />
            </Array>
          </mxGeometry>
        </mxCell>
        <mxCell id="kNFhqGO5XKdmtGAHznVc-4" value="Find Book&lt;br&gt;Position" style="whiteSpace=wrap;html=1;rounded=0;labelBackgroundColor=none;fillColor=#F2CC8F;strokeColor=#E07A5F;fontColor=#393C56;" parent="1" vertex="1">
          <mxGeometry x="340" y="310" width="120" height="60" as="geometry" />
        </mxCell>
        <mxCell id="kNFhqGO5XKdmtGAHznVc-6" value="&lt;br&gt;Updated List&lt;br&gt;of borrowed&amp;nbsp;&lt;br&gt;books" style="ellipse;whiteSpace=wrap;html=1;rounded=0;labelBackgroundColor=none;fillColor=#F2CC8F;strokeColor=#E07A5F;fontColor=#393C56;" parent="1" vertex="1">
          <mxGeometry x="355" y="460" width="90" height="90" as="geometry" />
        </mxCell>
        <mxCell id="kNFhqGO5XKdmtGAHznVc-11" value="Book Request" style="text;html=1;align=center;verticalAlign=middle;resizable=0;points=[];autosize=1;strokeColor=none;fillColor=none;labelBackgroundColor=none;fontColor=#393C56;" parent="1" vertex="1">
          <mxGeometry x="260" y="140" width="100" height="30" as="geometry" />
        </mxCell>
        <mxCell id="kNFhqGO5XKdmtGAHznVc-23" value="" style="edgeStyle=none;orthogonalLoop=1;jettySize=auto;html=1;endArrow=classic;startArrow=classic;endSize=8;startSize=8;rounded=0;labelBackgroundColor=none;strokeColor=#E07A5F;fontColor=default;" parent="1" edge="1">
          <mxGeometry width="100" relative="1" as="geometry">
            <mxPoint x="260" y="190" as="sourcePoint" />
            <mxPoint x="360" y="190" as="targetPoint" />
            <Array as="points" />
          </mxGeometry>
        </mxCell>
        <mxCell id="kNFhqGO5XKdmtGAHznVc-24" value="Book" style="text;html=1;align=center;verticalAlign=middle;resizable=0;points=[];autosize=1;strokeColor=none;fillColor=none;labelBackgroundColor=none;fontColor=#393C56;" parent="1" vertex="1">
          <mxGeometry x="285" y="188" width="50" height="30" as="geometry" />
        </mxCell>
        <mxCell id="kNFhqGO5XKdmtGAHznVc-25" value="&lt;font style=&quot;font-size: 10px;&quot;&gt;Book ID&amp;nbsp;&lt;br&gt;and Book Info&lt;/font&gt;" style="text;html=1;align=center;verticalAlign=middle;resizable=0;points=[];autosize=1;strokeColor=none;fillColor=none;labelBackgroundColor=none;fontColor=#393C56;" parent="1" vertex="1">
          <mxGeometry x="320" y="243" width="90" height="40" as="geometry" />
        </mxCell>
        <mxCell id="kNFhqGO5XKdmtGAHznVc-26" value="&lt;font style=&quot;font-size: 10px;&quot;&gt;Book&amp;nbsp;&lt;br&gt;Title&lt;/font&gt;" style="text;html=1;align=center;verticalAlign=middle;resizable=0;points=[];autosize=1;strokeColor=none;fillColor=none;labelBackgroundColor=none;fontColor=#393C56;" parent="1" vertex="1">
          <mxGeometry x="350" y="393" width="50" height="40" as="geometry" />
        </mxCell>
        <mxCell id="kNFhqGO5XKdmtGAHznVc-29" value="" style="edgeStyle=orthogonalEdgeStyle;rounded=0;orthogonalLoop=1;jettySize=auto;html=1;labelBackgroundColor=none;strokeColor=#E07A5F;fontColor=default;" parent="1" source="kNFhqGO5XKdmtGAHznVc-27" target="kNFhqGO5XKdmtGAHznVc-4" edge="1">
          <mxGeometry relative="1" as="geometry" />
        </mxCell>
        <mxCell id="kNFhqGO5XKdmtGAHznVc-27" value="List of Authors/&lt;br&gt;Publisher" style="whiteSpace=wrap;html=1;rounded=0;labelBackgroundColor=none;fillColor=#F2CC8F;strokeColor=#E07A5F;fontColor=#393C56;" parent="1" vertex="1">
          <mxGeometry x="580" y="310" width="180" height="60" as="geometry" />
        </mxCell>
        <mxCell id="kNFhqGO5XKdmtGAHznVc-30" value="Authors/&lt;br&gt;Publisher" style="text;html=1;align=center;verticalAlign=middle;resizable=0;points=[];autosize=1;strokeColor=none;fillColor=none;labelBackgroundColor=none;fontColor=#393C56;" parent="1" vertex="1">
          <mxGeometry x="480" y="303" width="70" height="40" as="geometry" />
        </mxCell>
        <mxCell id="kNFhqGO5XKdmtGAHznVc-33" value="" style="edgeStyle=orthogonalEdgeStyle;rounded=0;orthogonalLoop=1;jettySize=auto;html=1;labelBackgroundColor=none;strokeColor=#E07A5F;fontColor=default;" parent="1" source="kNFhqGO5XKdmtGAHznVc-31" target="kNFhqGO5XKdmtGAHznVc-4" edge="1">
          <mxGeometry relative="1" as="geometry" />
        </mxCell>
        <mxCell id="kNFhqGO5XKdmtGAHznVc-31" value="List Of&lt;br&gt;Books Titles" style="whiteSpace=wrap;html=1;rounded=0;labelBackgroundColor=none;fillColor=#F2CC8F;strokeColor=#E07A5F;fontColor=#393C56;" parent="1" vertex="1">
          <mxGeometry x="140" y="310" width="120" height="60" as="geometry" />
        </mxCell>
        <mxCell id="kNFhqGO5XKdmtGAHznVc-34" value="Titles" style="text;html=1;align=center;verticalAlign=middle;resizable=0;points=[];autosize=1;strokeColor=none;fillColor=none;labelBackgroundColor=none;fontColor=#393C56;" parent="1" vertex="1">
          <mxGeometry x="275" y="308" width="50" height="30" as="geometry" />
        </mxCell>
        <mxCell id="kNFhqGO5XKdmtGAHznVc-35" value="List Of&lt;br&gt;Borrowed&lt;br&gt;Books" style="rounded=0;whiteSpace=wrap;html=1;labelBackgroundColor=none;fillColor=#F2CC8F;strokeColor=#E07A5F;fontColor=#393C56;" parent="1" vertex="1">
          <mxGeometry x="595" y="480" width="150" height="60" as="geometry" />
        </mxCell>
        <mxCell id="kNFhqGO5XKdmtGAHznVc-36" value="" style="endArrow=classic;startArrow=classic;html=1;rounded=0;entryX=0;entryY=0.25;entryDx=0;entryDy=0;labelBackgroundColor=none;strokeColor=#E07A5F;fontColor=default;" parent="1" edge="1">
          <mxGeometry width="50" height="50" relative="1" as="geometry">
            <mxPoint x="445" y="505" as="sourcePoint" />
            <mxPoint x="595" y="504.5" as="targetPoint" />
          </mxGeometry>
        </mxCell>
        <mxCell id="kNFhqGO5XKdmtGAHznVc-38" value="Book Title&amp;nbsp;" style="text;html=1;align=center;verticalAlign=middle;resizable=0;points=[];autosize=1;strokeColor=none;fillColor=none;labelBackgroundColor=none;fontColor=#393C56;" parent="1" vertex="1">
          <mxGeometry x="470" y="478" width="80" height="30" as="geometry" />
        </mxCell>
        <mxCell id="kNFhqGO5XKdmtGAHznVc-41" value="Student Names" style="text;html=1;align=center;verticalAlign=middle;resizable=0;points=[];autosize=1;strokeColor=none;fillColor=none;labelBackgroundColor=none;fontColor=#393C56;" parent="1" vertex="1">
          <mxGeometry x="460" y="508" width="110" height="30" as="geometry" />
        </mxCell>
        <mxCell id="kNFhqGO5XKdmtGAHznVc-42" value="Display&lt;br&gt;of Books" style="rounded=0;whiteSpace=wrap;html=1;labelBackgroundColor=none;fillColor=#F2CC8F;strokeColor=#E07A5F;fontColor=#393C56;" parent="1" vertex="1">
          <mxGeometry x="130" y="480" width="140" height="60" as="geometry" />
        </mxCell>
        <mxCell id="kNFhqGO5XKdmtGAHznVc-44" value="" style="edgeStyle=orthogonalEdgeStyle;rounded=0;orthogonalLoop=1;jettySize=auto;html=1;labelBackgroundColor=none;strokeColor=#E07A5F;fontColor=default;" parent="1" edge="1">
          <mxGeometry relative="1" as="geometry">
            <mxPoint x="355" y="507.5" as="sourcePoint" />
            <mxPoint x="270" y="507" as="targetPoint" />
            <Array as="points">
              <mxPoint x="313" y="507" />
            </Array>
          </mxGeometry>
        </mxCell>
        <mxCell id="kNFhqGO5XKdmtGAHznVc-45" value="&lt;font style=&quot;font-size: 10px;&quot;&gt;Demanded book&lt;br&gt;info&lt;/font&gt;" style="text;html=1;align=center;verticalAlign=middle;resizable=0;points=[];autosize=1;strokeColor=none;fillColor=none;labelBackgroundColor=none;fontColor=#393C56;" parent="1" vertex="1">
          <mxGeometry x="260" y="510" width="100" height="40" as="geometry" />
        </mxCell>
        <mxCell id="kNFhqGO5XKdmtGAHznVc-50" value="&lt;b&gt;2 LEVEL DFD - LIBRARY MANAGEMENT SYSTEM&lt;/b&gt;" style="rounded=1;whiteSpace=wrap;html=1;labelBackgroundColor=none;fillColor=#F2CC8F;strokeColor=#E07A5F;fontColor=#393C56;" parent="1" vertex="1">
          <mxGeometry x="230" y="630" width="430" height="40" as="geometry" />
        </mxCell>
      </root>
    </mxGraphModel>
  </diagram>
</mxfile>
